<svg version="1.0" xmlns="http://www.w3.org/2000/svg" viewBox="0 0 300.000000 153.000000" preserveAspectRatio="xMidYMid meet">
<g transform="translate(0.000000,153.000000) scale(0.100000,-0.100000)">
<path d="M2557 1303 c-4 -3 -7 -22 -7 -40 0 -19 -48 -159 -110 -321 -99 -256 -115 -291 -148 -320 -55 -48 -133 -92 -166 -92 -27 0 -28 2 -23 36 8 47 85 170 161 257 129 146 148 179 109 194 -20 8 -98 -12 -127 -33 l-21 -16 23 7 c17 5 22 2 22 -11 0 -25 -125 -207 -190 -278 -67 -72 -162 -136 -203 -136 -28 0 -29 1 -24 36 3 20 24 66 46 103 37 62 59 90 189 241 57 67 65 102 24 108 -26 4 -119 -25 -128 -40 -4 -6 1 -8 15 -3 15 4 21 2 21 -9 0 -23 -135 -219 -197 -286 -51 -56 -64 -82 -21 -43 18 16 19 16 9 -11 -18 -47 -14 -93 11 -110 12 -9 32 -16 43 -16 34 1 102 37 149 80 l45 41 -6 -54 c-5 -49 -3 -56 18 -71 13 -9 33 -16 44 -16 35 1 102 37 149 81 25 23 46 37 46 32 0 -5 -18 -55 -40 -112 -43 -111 -49 -158 -24 -201 35 -58 116 -78 175 -43 39 23 48 45 219 493 85 222 153 385 167 401 36 40 30 65 -24 100 -74 46 -203 76 -226 52z m158 -43 c28 -12 60 -31 73 -42 l22 -22 -21 -22 c-11 -12 -92 -210 -180 -440 -106 -277 -169 -427 -185 -444 -19 -19 -35 -25 -70 -25 -39 0 -50 5 -75 33 -17 19 -29 44 -29 59 0 15 72 215 160 445 103 267 160 430 160 454 l0 37 48 -6 c26 -3 70 -15 97 -27z"/>
<path d="M2610 1257 c0 -31 138 -79 149 -52 6 14 -65 52 -111 60 -30 6 -38 4 -38 -8z"/>
<path d="M2620 885 c-14 -15 -51 -33 -90 -45 -37 -11 -76 -30 -88 -43 -26 -28 -172 -400 -172 -437 1 -42 43 -80 89 -80 48 0 69 39 182 334 60 158 108 290 106 292 -2 2 -14 -7 -27 -21z m-153 -132 c-4 -3 -10 -3 -14 0 -3 4 0 7 7 7 7 0 10 -3 7 -7z m63 -63 c0 -5 -4 -10 -10 -10 -5 0 -10 5 -10 10 0 6 5 10 10 10 6 0 10 -4 10 -10z m-82 -73 c4 -21 -25 -34 -40 -19 -8 8 -8 16 2 27 16 19 34 15 38 -8z m-54 -58 c-3 -5 -10 -7 -15 -3 -5 3 -7 10 -3 15 3 5 10 7 15 3 5 -3 7 -10 3 -15z m53 -96 c-4 -3 -10 -3 -14 0 -3 4 0 7 7 7 7 0 10 -3 7 -7z"/>
<path d="M1459 1081 c-92 -59 -211 -205 -276 -340 -34 -69 -113 -148 -192 -189 -85 -46 -121 -40 -121 20 0 38 21 76 62 114 44 42 74 57 99 49 50 -16 -2 -77 -88 -102 l-48 -13 45 5 c82 11 153 72 131 113 -29 55 -163 29 -233 -45 -30 -31 -58 -91 -58 -123 0 -12 11 -32 25 -45 19 -20 34 -25 75 -25 61 0 123 29 198 94 30 25 55 46 56 46 2 0 -3 -23 -10 -52 -17 -64 -17 -80 -2 -113 16 -35 25 -31 20 8 -2 18 1 52 8 75 l11 42 37 -29 c67 -53 170 -65 203 -24 13 15 12 15 -10 4 -29 -16 -88 4 -140 48 l-34 28 51 6 c88 10 162 64 162 116 0 73 -90 67 -179 -13 -43 -38 56 97 131 178 38 42 90 90 113 106 46 31 85 39 85 17 0 -37 -112 -144 -197 -189 -24 -13 -43 -27 -43 -31 0 -17 125 61 185 116 75 68 96 114 71 152 -23 35 -78 34 -137 -4z m-93 -336 c14 -36 -72 -104 -133 -105 -51 0 -35 36 41 91 43 32 83 38 92 14z"/>
<path d="M802 883 c-18 -7 -33 -39 -26 -57 14 -37 74 -2 74 42 0 22 -18 27 -48 15z"/>
<path d="M1789 818 c-46 -91 -206 -267 -229 -253 -12 7 -9 13 36 76 49 67 58 97 39 125 -30 46 -81 26 -170 -67 -67 -70 -50 -62 38 18 93 84 105 68 26 -34 -44 -58 -50 -70 -47 -107 3 -34 7 -42 26 -44 42 -6 81 19 154 97 l71 76 -28 -50 c-136 -240 -259 -355 -379 -355 -61 0 -99 23 -128 76 -29 56 -37 48 -9 -10 63 -129 267 -111 411 35 67 68 117 158 160 293 33 102 56 136 91 136 30 0 18 24 -14 28 -22 3 -29 -4 -48 -40z"/>
<path d="M745 761 c4 -12 -6 -34 -30 -65 -32 -43 -36 -62 -6 -33 21 19 -4 -26 -62 -113 -62 -92 -149 -180 -220 -220 -95 -54 -187 -33 -228 53 -16 33 -19 36 -14 13 33 -152 264 -151 419 1 125 124 213 322 164 371 -18 18 -30 14 -23 -7z"/>
</g>
</svg>